<svg width="16" height="16" viewBox="0 0 16 16" fill="none" xmlns="http://www.w3.org/2000/svg">
<path d="M11.1667 12.9697C11.1667 12.8182 11.2402 12.5835 11.4143 12.2759C11.5815 11.9804 11.8111 11.67 12.0511 11.3813C12.2708 11.1171 12.4918 10.88 12.6667 10.7008C12.8416 10.88 13.0625 11.1171 13.2822 11.3813C13.5222 11.67 13.7518 11.9804 13.919 12.2759C14.0931 12.5835 14.1667 12.8182 14.1667 12.9697C14.1667 13.553 13.5707 14.1667 12.6667 14.1667C11.7626 14.1667 11.1667 13.553 11.1667 12.9697Z" stroke="current"/>
<path fill-rule="evenodd" clip-rule="evenodd" d="M4.45325 2.92267C4.31183 2.80481 4.29272 2.59462 4.41058 2.4532C4.52843 2.31177 4.73862 2.29267 4.88004 2.41052C6.94018 4.01443 8.76371 5.70639 10.6115 7.55416C10.8114 7.75403 11.0057 7.94827 11.1444 8.13005C11.3008 8.33498 11.4478 8.60028 11.4478 8.94273C11.4478 9.28517 11.3008 9.55048 11.1444 9.75541C11.0057 9.93719 10.8114 10.1314 10.6115 10.3313L7.77913 13.1636C7.57928 13.3636 7.38501 13.5579 7.20324 13.6966C6.99831 13.853 6.73301 13.9999 6.39057 13.9999C6.04812 13.9999 5.78282 13.853 5.57789 13.6966C5.39611 13.5579 5.20187 13.3636 5.002 13.1636L2.16966 10.3313C1.96972 10.1314 1.77539 9.93719 1.63669 9.7554C1.48034 9.55048 1.33337 9.28517 1.33337 8.94273C1.33337 8.60028 1.48034 8.33498 1.63669 8.13005C1.77538 7.94827 1.9697 7.75403 2.16964 7.55417L5.00199 4.72182C5.96383 3.7596 5.5103 3.71573 4.45325 2.92267ZM7.33337 5.21887L10.1144 7.99992C10.3757 8.26116 10.5601 8.44563 10.6678 8.60939H2.11331C2.221 8.44563 2.40546 8.26117 2.6667 7.99993L5.44776 5.21887C5.8922 4.77443 6.11442 4.5522 6.39057 4.5522C6.66671 4.5522 6.88893 4.77442 7.33337 5.21887Z" fill="current"/>
</svg>
